Coordinates
version=1
nRows=9
nColumns=24
inDegrees=yes

Units are S.I. units (second, meters, Newtons, ...)
Angles are in degrees.

endheader
time	pelvis_tilt	pelvis_list	pelvis_rotation	pelvis_tx	pelvis_ty	pelvis_tz	hip_flexion_r	hip_adduction_r	hip_rotation_r	knee_angle_r	ankle_angle_r	subtalar_angle_r	mtp_angle_r	hip_flexion_l	hip_adduction_l	hip_rotation_l	knee_angle_l	ankle_angle_l	subtalar_angle_l	mtp_angle_l	lumbar_extension	lumbar_bending	lumbar_rotation
      1.52533333	     -3.97245634	      5.61022269	      0.71230034	      0.51449007	      0.99007559	      0.31800970	     22.44590712	     -7.86250926	     -0.84096677	    -66.20731637	      2.15730071	     -9.66705301	      2.75211315	     11.59039188	     11.58167110	      4.54922352	    -10.78747512	      1.22186628	    -16.89503539	     -1.54114254	      3.09060915	     -3.95503068	      5.18875882
      1.52950000	     -3.88838466	      5.52522575	      0.84867711	      0.51929510	      0.99075149	      0.31778132	     22.93102984	     -7.75746767	     -0.82012271	    -65.77224524	      2.64181719	     -9.75952378	      2.74565967	     10.99777340	     11.50516857	      4.74310908	    -10.45456366	      1.31652030	    -16.81659308	     -1.53600615	      2.96707840	     -3.87195604	      5.04287737
      1.53366667	     -3.77467333	      5.45063569	      0.98670557	      0.52412602	      0.99144886	      0.31753660	     23.36455034	     -7.67371678	     -0.81272189	    -65.28615146	      3.08047008	     -9.81931174	      2.71819935	     10.35780316	     11.43837794	      4.95207577	    -10.09069118	      1.38402907	    -16.78925084	     -1.53116452	      2.81892357	     -3.80132563	      4.81564664
      1.53783333	     -3.71888037	      5.34680468	      1.13315047	      0.52890755	      0.99202754	      0.31730248	     23.85082939	     -7.55520371	     -0.81213709	    -64.76200643	      3.53430846	     -9.86390727	      2.70766178	      9.81084673	     11.33612811	      5.14351775	     -9.78267836	      1.48382939	    -16.70500900	     -1.52676233	      2.72942788	     -3.68814447	      4.71333925
      1.54200000	     -3.63149313	      5.26673702	      1.28414778	      0.53368474	      0.99260073	      0.31706513	     24.28897917	     -7.46386130	     -0.80737215	    -64.20163159	      3.97876454	     -9.89999452	      2.69329544	      9.22546760	     11.25651595	      5.33887374	     -9.46330179	      1.58196822	    -16.62622950	     -1.52246378	      2.59814855	     -3.60197593	      4.56321843
      1.54616667	     -3.54755064	      5.17852692	      1.42899165	      0.53845158	      0.99314050	      0.31685024	     24.71615344	     -7.36138653	     -0.80198704	    -63.59332717	      4.37384883	     -9.92170992	      2.67179961	      8.65003414	     11.16269813	      5.53160213	     -9.15283472	      1.67878367	    -16.55837294	     -1.51841989	      2.46695422	     -3.52629072	      4.38363857
      1.55033333	     -3.42090685	      5.11646181	      1.56660548	      0.54323695	      0.99370534	      0.31661545	     25.08508963	     -7.29592774	     -0.79966269	    -62.95159396	      4.73088943	     -9.92706590	      2.62815428	      8.01441334	     11.09472763	      5.72691154	     -8.81207147	      1.77431131	    -16.51145887	     -1.51453715	      2.28739414	     -3.45807425	      4.14248494
      1.55450000	     -3.35345427	      5.03434575	      1.71909779	      0.54798199	      0.99413768	      0.31638617	     25.50412326	     -7.20814009	     -0.80642737	    -62.27243387	      5.08601246	     -9.93702752	      2.58077511	      7.46761376	     11.00393752	      5.91923078	     -8.51617054	      1.87625999	    -16.44719591	     -1.51033956	      2.17553119	     -3.37557469	      3.95948506
      1.55866667	     -3.30079673	      4.95589791	      1.88167742	      0.55271030	      0.99451817	      0.31615005	     25.92293004	     -7.12884108	     -0.82110905	    -61.55531158	      5.42486665	     -9.94980258	      2.54831299	      6.94966606	     10.91504918	      6.10791153	     -8.24332758	      1.97254707	    -16.36134207	     -1.50646511	      2.08046601	     -3.30118964	      3.83033883
